<?xml version="1.0" encoding="utf-8"?>
<!-- Generator: Adobe Illustrator 23.0.1, SVG Export Plug-In . SVG Version: 6.00 Build 0)  -->
<svg version="1.1" id="Layer_1" xmlns="http://www.w3.org/2000/svg" xmlns:xlink="http://www.w3.org/1999/xlink" x="0px" y="0px"
	 viewBox="0 0 1920 1080" style="enable-background:new 0 0 1920 1080;" xml:space="preserve">
<style type="text/css">
	.st0{opacity:0.61;fill:url(#SVGID_1_);}
	.st1{fill:none;}
	.st2{fill:url(#SVGID_2_);}
	.st3{opacity:0.61;fill:url(#SVGID_3_);}
	.st4{fill:url(#SVGID_4_);}
	.st5{opacity:0.61;fill:none;}
	.st6{opacity:0.61;fill:url(#SVGID_5_);}
</style>
<linearGradient id="SVGID_1_" gradientUnits="userSpaceOnUse" x1="0" y1="605.2701" x2="1920" y2="605.2701">
	<stop  offset="0" style="stop-color:#49007F"/>
	<stop  offset="0.1019" style="stop-color:#4C0182"/>
	<stop  offset="0.1893" style="stop-color:#56058D"/>
	<stop  offset="0.2714" style="stop-color:#650A9F"/>
	<stop  offset="0.3503" style="stop-color:#7C13B8"/>
	<stop  offset="0.4261" style="stop-color:#981DD7"/>
	<stop  offset="0.5" style="stop-color:#BB2AFE"/>
	<stop  offset="0.5014" style="stop-color:#BC2AFF"/>
	<stop  offset="0.6939" style="stop-color:#6514E9"/>
	<stop  offset="0.8652" style="stop-color:#1500D4"/>
	<stop  offset="0.9944" style="stop-color:#005B97"/>
</linearGradient>
<path class="st0" d="M1920,468.74V725c-3.22-2.44-6.47-5.07-9.8-7.84c-20.16-16.76-42.97-38.44-76.2-52.16
	c-90.71-37.44-175.3,18.91-269,51c-48.52,16.62-87.09,22.48-121.75,22.25c-44.29-0.29-82.17-10.55-126.27-21.05h-0.01
	c-8.7-2.08-17.64-4.16-26.93-6.17c-50.83-11.04-111.82-20.12-198.87-14.97c-11.73,0.69-22.41,1.51-37.17,2.94
	c-123.99,11.97-246,34-246,34c-33.33,6.02-56.48,10.75-90,8c-12.33-1.01-24.11-2.87-72-15c-64.83-16.42-62.53-17.89-104-28
	c-54.74-13.35-72.64-14.17-113.58-29.44c-26.3-9.81-27.07-12.51-39.42-16.56c-74.39-24.4-135.86,44.27-244,74
	c-32.05,8.81-80.37,17.55-144,12c-0.33-42.2-0.67-84.41-1-126.61c2.31-0.11,4.65-0.24,7-0.39c168.16-10.7,196.8-116.48,325-135
	c166.28-24.02,192.03,143.26,376,129c0.63-0.05,1.25-0.1,1.87-0.15c49.4-4.14,86.69-19.55,121.97-35.67
	C887.35,543.82,937.93,516.71,1023,529c58.53,8.45,54.83,27.48,140,47c37.76,8.65,133.74,29.71,249,10
	c104.77-17.91,109.06-49.6,206-54c32.08-1.46,64.45,0.52,111.79-10.96c1.39-0.33,2.79-0.68,4.21-1.04
	c19.59-4.99,34.18-11,46.65-16.94c18.31-8.7,32.06-17.23,50.35-22.06C1859.48,473.47,1890.01,469.55,1920,468.74z"/>
<line class="st1" x1="0" y1="217" x2="0" y2="217"/>
<line class="st1" x1="0" y1="406.75" x2="0" y2="165"/>
<line class="st1" x1="0" y1="838" x2="0" y2="506.35"/>
<line class="st1" x1="1920" y1="820" x2="1920" y2="644.82"/>
<line class="st1" x1="1920" y1="444.7" x2="1920" y2="190"/>
<linearGradient id="SVGID_2_" gradientUnits="userSpaceOnUse" x1="349" y1="713" x2="349" y2="713">
	<stop  offset="0" style="stop-color:#CCE0F4"/>
	<stop  offset="0.0641" style="stop-color:#C3DCF2"/>
	<stop  offset="0.1706" style="stop-color:#A9D2EE"/>
	<stop  offset="0.3066" style="stop-color:#80C2E7"/>
	<stop  offset="0.4649" style="stop-color:#47ACDE"/>
	<stop  offset="0.5674" style="stop-color:#1E9CD7"/>
	<stop  offset="0.8652" style="stop-color:#0075BE"/>
	<stop  offset="0.9944" style="stop-color:#005B97"/>
</linearGradient>
<path class="st2" d="M349,713"/>
<linearGradient id="SVGID_3_" gradientUnits="userSpaceOnUse" x1="0" y1="550.0496" x2="1920" y2="550.0496">
	<stop  offset="0" style="stop-color:#94FFE2"/>
	<stop  offset="0.0723" style="stop-color:#8BFDE2"/>
	<stop  offset="0.1925" style="stop-color:#71F9E4"/>
	<stop  offset="0.3458" style="stop-color:#48F2E6"/>
	<stop  offset="0.5246" style="stop-color:#0FE8E8"/>
	<stop  offset="0.5674" style="stop-color:#00E6E9"/>
	<stop  offset="0.8652" style="stop-color:#0075BE"/>
	<stop  offset="0.9944" style="stop-color:#005B97"/>
</linearGradient>
<path class="st3" d="M1920,399.14v216.83c-119.72,69.27-202.2-20.78-394,13.83c-105.47,19.03-134.46,55.99-189.33,77.54
	c-6.19,2.44-12.7,4.67-19.69,6.66h-0.01c-18.45,5.26-40.21,8.81-67.97,9.8c-7.25,0.26-14.15,0.31-20.74,0.18
	c-58.25-1.12-92.62-16.4-137.09-31.12c-33.67-11.14-73.14-21.96-133.17-26.06c-132.19-9.02-143.31,29.64-275,32
	c-212.6,3.81-231.96-96.08-407-92c-123.01,2.86-209.68,54.43-276,90.16V481.09c33.91-24.77,92.09-60.64,172-79.29
	c78.8-18.39,142.3-11.52,181-7c86.8,10.15,160.66,38.41,204,55c33.6,12.86,67.73,24.33,101.17,37.6
	c19.47,7.72,38.76,15.06,61.97,20.97c14.06,3.58,26.29,5.81,32.07,6.69c40.55,6.22,76.81-7.68,107.78-18.06
	c62.98-21.1,110.82-29.89,161.23-39.16c14.5-2.66,50.62-8.86,93.77-7.04c62.97,2.65,58.29,14.2,188,29
	c113.64,12.97,170.45,19.45,224,8c116.71-24.96,116.79-88,218-107C1803.51,369.81,1868.35,378.7,1920,399.14z"/>
<linearGradient id="SVGID_4_" gradientUnits="userSpaceOnUse" x1="1441" y1="1001" x2="1441" y2="1001">
	<stop  offset="0" style="stop-color:#94FFE2"/>
	<stop  offset="0.0723" style="stop-color:#8BFDE2"/>
	<stop  offset="0.1925" style="stop-color:#71F9E4"/>
	<stop  offset="0.3458" style="stop-color:#48F2E6"/>
	<stop  offset="0.5246" style="stop-color:#0FE8E8"/>
	<stop  offset="0.5674" style="stop-color:#00E6E9"/>
	<stop  offset="0.8652" style="stop-color:#0075BE"/>
	<stop  offset="0.9944" style="stop-color:#005B97"/>
</linearGradient>
<path class="st4" d="M1441,1001"/>
<path class="st5" d="M0,496.29v349.33c-29.99,16.48-56.63,23.06-79.27,11.31c-25.33,20.74-46.4,34.78-68.73,25.07
	c-50.69-22.04-66.97-148.71-18.14-203.71C-183.13,625.86-175.41,557.32-142,525c23.47-22.71,51.74-19.93,101-24
	C-26.14,499.77-12.54,498.18,0,496.29z"/>
<linearGradient id="SVGID_5_" gradientUnits="userSpaceOnUse" x1="2" y1="604.9166" x2="1922" y2="604.9166">
	<stop  offset="0" style="stop-color:#49FF7F"/>
	<stop  offset="0.0752" style="stop-color:#4BFC7E"/>
	<stop  offset="0.1399" style="stop-color:#53F17B"/>
	<stop  offset="0.2006" style="stop-color:#60DF75"/>
	<stop  offset="0.2589" style="stop-color:#71C66E"/>
	<stop  offset="0.3156" style="stop-color:#88A664"/>
	<stop  offset="0.3709" style="stop-color:#A57F58"/>
	<stop  offset="0.4253" style="stop-color:#C65049"/>
	<stop  offset="0.4775" style="stop-color:#EC1B39"/>
	<stop  offset="0.5014" style="stop-color:#FF0031"/>
	<stop  offset="0.631" style="stop-color:#FF5878"/>
	<stop  offset="0.8652" style="stop-color:#FFFFFF"/>
	<stop  offset="0.9944" style="stop-color:#005B97"/>
</linearGradient>
<path class="st6" d="M1922,452.24v223.73c-25.03,10.1-59.71,22.75-102,34.03c-57.82,15.42-92.72,24.72-139,25
	c-26.34,0.16-85.29-11.84-203.19-35.83c-24.38-4.96-28.68-5.76-32.56-6.92c-32.06-9.51-59.93-24.33-106.58-27.71
	c-9.11-0.66-18.95-0.88-29.67-0.54c-6.02,0.19-11.66,0.54-16.96,1.03c-26.06,2.41-44.21,8.28-61.78,16.15
	c-34.77,15.58-67.29,38.97-154.26,58.82c-48.22,11-134.48,30.69-237,16c-42.8-6.14-73.59-16.14-98.25-27.09
	C681.88,702.78,657.96,671.24,589,674c-18.97,0.76-35.56,3.88-50.46,8.65c-9.62,3.08-17.46,6.5-23.01,9.17
	c-4.04,1.95-6.99,3.55-7.78,3.97C446.78,728.79,420,738,420,738c-34.16,11.7-63.44,9.61-114,6c-24.94-1.78-45.23-5.27-54.91-6.95
	C223.67,732.27,200.6,726.26,183,721c0,0-46.63-7.12-102-3c-7.88,0.59-16.39,1.48-26.59,3.62C35.02,725.69,17.69,732.54,2,740.85
	V589.62c130.92-7.9,135.69-46.02,279-42.62c201.06,4.77,253.65,81.26,362,38c7.59-3.03,32.39-13.41,68.87-26.15
	c19.62-6.86,42.62-14.41,68.13-21.85c21.71-6.34,38.91-10.76,53.84-13.82c17.61-3.63,32.09-5.37,47.16-6.18
	c39.78-2.13,71.37,2.92,96,7c48.59,8.05,83.18,19.88,96,24c123.69,39.75,266.63,19.13,274,18c106.35-16.24,106.87-49.5,206-54
	c33.02-1.5,66.35,0.64,116-12c28.58-7.28,46.53-16.75,62.79-24.96c11.23-5.66,21.65-10.72,34.21-14.04
	c5.48-1.45,11.03-2.76,16.65-3.94C1828.64,447.34,1878.52,446.34,1922,452.24z"/>
<polyline class="st1" points="1920,733.97 1920,737 1920,751.35 "/>
<path class="st1" d="M1949.47,752.37c-7.49-1.65-14.62-5.17-21.79-9.9c-2.55-1.68-5.1-3.51-7.68-5.47v-3.03
	c3.59,1.85,7.02,3.71,10.26,5.57C1937.82,743.89,1944.33,748.23,1949.47,752.37z"/>
<line class="st1" x1="1920" y1="733.97" x2="1920" y2="653.41"/>
<line class="st1" x1="1920" y1="850" x2="1920" y2="737"/>
<line class="st1" x1="1920" y1="414.34" x2="1920" y2="135"/>
<line class="st1" x1="0" y1="1001" x2="0" y2="845.62"/>
<line class="st1" x1="0" y1="496.29" x2="0" y2="110"/>
</svg>
